<?xml version="1.0" encoding="utf-8"?>
<!-- Generator: Adobe Illustrator 15.1.0, SVG Export Plug-In . SVG Version: 6.00 Build 0)  -->
<!DOCTYPE svg PUBLIC "-//W3C//DTD SVG 1.1//EN" "http://www.w3.org/Graphics/SVG/1.1/DTD/svg11.dtd">
<svg version="1.1" id="レイヤー_1" xmlns="http://www.w3.org/2000/svg" xmlns:xlink="http://www.w3.org/1999/xlink" x="0px"
	 y="0px" width="236.372px" height="30.574px" viewBox="0 0 236.372 30.574" enable-background="new 0 0 236.372 30.574"
	 xml:space="preserve">
<g>
	<path d="M48.465,11.059c1.246,1.094,2.302,2.074,3.168,2.94c0.463-1.58,0.802-3.408,1.015-5.482h-3.83l-2.622,0.046
		c-0.129,0-0.209-0.016-0.238-0.046c-0.023-0.03-0.035-0.103-0.035-0.217V6.453c0-0.121,0.016-0.193,0.046-0.217
		c0.03-0.022,0.106-0.034,0.228-0.034l2.622,0.046h4.457c0.235,0,0.414-0.03,0.536-0.091c0.075-0.046,0.182-0.068,0.318-0.068
		c0.229,0,0.539,0.239,0.936,0.718c0.311,0.41,0.467,0.707,0.467,0.889c0,0.062-0.096,0.255-0.285,0.582
		c-0.099,0.189-0.182,0.642-0.25,1.356c-0.313,2.424-0.803,4.532-1.471,6.326c0.844,0.935,1.725,1.956,2.645,3.065
		c0.076,0.092,0.113,0.16,0.113,0.206c0,0.045-0.061,0.133-0.182,0.262l-1.289,1.425c-0.113,0.137-0.201,0.205-0.262,0.205
		c-0.038,0-0.099-0.053-0.182-0.16c-0.555-0.736-1.201-1.554-1.938-2.45c-1.185,2.303-2.856,4.393-5.015,6.27
		c-0.236,0.235-0.393,0.353-0.468,0.353c-0.076,0-0.231-0.163-0.468-0.489c-0.41-0.586-0.869-1.038-1.379-1.356
		c2.6-2.045,4.476-4.309,5.631-6.794c-1.246-1.375-2.538-2.647-3.875-3.818c-0.084-0.061-0.126-0.114-0.126-0.159
		c0-0.061,0.058-0.141,0.171-0.239l1.117-1.151c0.106-0.114,0.186-0.171,0.239-0.171C48.305,10.956,48.373,10.99,48.465,11.059z
		 M67.396,23.414c-0.418,0.464-0.79,1.037-1.117,1.721c-0.166,0.343-0.307,0.514-0.421,0.514c-0.084,0-0.247-0.088-0.49-0.263
		c-1.809-1.23-3.351-2.72-4.628-4.468c-1.52,1.748-3.442,3.324-5.768,4.73c-0.289,0.175-0.467,0.262-0.535,0.262
		c-0.092,0-0.24-0.179-0.445-0.535c-0.365-0.631-0.768-1.129-1.208-1.494c2.69-1.367,4.882-3.089,6.577-5.163
		c-1.475-2.812-2.391-6.227-2.747-10.247c-0.221,0.016-0.418,0.023-0.593,0.023c-0.121,0-0.193-0.016-0.217-0.046
		c-0.022-0.03-0.034-0.103-0.034-0.217V6.442c0-0.137,0.015-0.221,0.046-0.251c0.03-0.023,0.099-0.034,0.205-0.034l2.804,0.045
		h5.072c0.259,0,0.452-0.03,0.581-0.091c0.122-0.061,0.248-0.091,0.377-0.091c0.159,0,0.494,0.266,1.003,0.798
		C66.2,7.183,66.371,7.46,66.371,7.65c0,0.137-0.088,0.308-0.262,0.513c-0.16,0.235-0.259,0.509-0.297,0.82
		c-0.547,3.86-1.709,7.144-3.488,9.849C63.502,20.45,65.193,21.978,67.396,23.414z M63.453,8.448h-4.56
		c0.343,3.245,1.022,5.931,2.04,8.059C62.31,14.144,63.148,11.457,63.453,8.448z"/>
	<path d="M71.762,10.967c1.375,0.806,2.5,1.6,3.374,2.383c0.068,0.076,0.103,0.145,0.103,0.205c0,0.053-0.038,0.141-0.114,0.262
		l-1.071,1.391c-0.113,0.16-0.197,0.239-0.25,0.239c-0.039,0-0.111-0.037-0.217-0.113c-0.92-0.942-2.018-1.801-3.295-2.576
		c-0.106-0.061-0.159-0.122-0.159-0.183c0-0.053,0.046-0.141,0.137-0.262l1.026-1.231c0.098-0.121,0.186-0.183,0.262-0.183
		C71.609,10.898,71.678,10.922,71.762,10.967z M70.2,24.554c0.425-0.623,0.774-1.224,1.048-1.801
		c0.859-1.793,1.528-3.686,2.007-5.676c0.464,0.463,0.894,0.832,1.288,1.105c0.342,0.221,0.513,0.418,0.513,0.593
		c0,0.099-0.03,0.273-0.091,0.524c-0.381,1.428-1.011,3.21-1.893,5.346c-0.197,0.433-0.296,0.744-0.296,0.935
		c0,0.25-0.08,0.376-0.239,0.376c-0.114,0-0.285-0.062-0.514-0.183C71.507,25.484,70.898,25.078,70.2,24.554z M72.765,5.131
		c1.003,0.57,2.071,1.372,3.203,2.405c0.083,0.068,0.126,0.133,0.126,0.194c0,0.061-0.051,0.159-0.148,0.296l-1.026,1.368
		C74.813,9.531,74.732,9.6,74.68,9.6c-0.045,0-0.113-0.034-0.205-0.103c-1.094-1.155-2.166-2.037-3.215-2.645
		c-0.105-0.054-0.159-0.106-0.159-0.16c0-0.045,0.05-0.133,0.147-0.262l1.049-1.186c0.107-0.129,0.194-0.193,0.263-0.193
		C72.605,5.052,72.674,5.078,72.765,5.131z M74.896,11.4c1.564-1.451,2.709-3.146,3.431-5.084c0.259-0.699,0.399-1.292,0.422-1.778
		c0.768,0.106,1.505,0.239,2.212,0.399c0.28,0.068,0.421,0.187,0.421,0.354c0,0.121-0.068,0.254-0.205,0.398
		c-0.251,0.251-0.429,0.513-0.536,0.787c-0.105,0.288-0.209,0.531-0.307,0.729h7.659l3.055-0.023c0.129,0,0.205,0.012,0.228,0.034
		c0.023,0.023,0.035,0.088,0.035,0.194v1.687c0,0.13-0.02,0.209-0.058,0.239c-0.022,0.023-0.091,0.034-0.205,0.034l-3.055-0.045
		h-8.686c-0.251,0.44-0.555,0.915-0.912,1.425l2.94,0.045h5.118l2.93-0.045c0.19,0,0.284,0.095,0.284,0.284
		c-0.053,0.783-0.09,1.444-0.113,1.983l-0.113,2.61l1.982-0.045c0.129,0,0.209,0.015,0.24,0.045c0.021,0.03,0.033,0.099,0.033,0.205
		v1.642c0,0.114-0.014,0.185-0.039,0.211c-0.027,0.026-0.105,0.04-0.234,0.04c-0.016,0-0.106-0.004-0.273-0.012
		c-0.547-0.015-1.166-0.026-1.857-0.034c-0.046,0.745-0.13,1.752-0.252,3.021l1.676-0.046c0.137,0,0.221,0.016,0.252,0.046
		c0.021,0.03,0.033,0.099,0.033,0.205v1.573c0,0.114-0.016,0.185-0.045,0.211c-0.031,0.026-0.11,0.04-0.24,0.04
		c-0.022,0-0.109-0.004-0.262-0.012c-0.51-0.016-1.053-0.026-1.63-0.034l-0.046,0.513c-0.137,1.041-0.467,1.782-0.991,2.223
		c-0.479,0.403-1.175,0.604-2.086,0.604c-0.639,0-1.053-0.008-1.243-0.023c-0.189-0.015-0.307-0.061-0.353-0.137
		c-0.046-0.068-0.114-0.273-0.206-0.615c-0.197-0.631-0.429-1.136-0.695-1.516c0.602,0.068,1.33,0.103,2.189,0.103
		c0.707,0,1.098-0.384,1.174-1.151h-7.819c-0.114,0.509-0.217,0.942-0.308,1.3c-0.046,0.25-0.164,0.376-0.354,0.376
		c-0.137,0-0.441-0.046-0.912-0.137c-0.523-0.092-0.84-0.156-0.945-0.194c-0.137-0.045-0.205-0.106-0.205-0.183
		c0-0.045,0.018-0.121,0.057-0.228c0.228-0.607,0.414-1.224,0.559-1.847c0.326-1.383,0.6-2.747,0.82-4.092
		c-0.555,0.008-1.061,0.02-1.516,0.034c-0.305,0.008-0.461,0.012-0.468,0.012c-0.122,0-0.198-0.016-0.228-0.046
		c-0.023-0.03-0.035-0.099-0.035-0.205v-1.642c0-0.121,0.02-0.193,0.058-0.216c0.022-0.023,0.091-0.034,0.205-0.034l2.269,0.045
		c0.091-0.653,0.197-1.634,0.318-2.94c0.047-0.494,0.068-1.015,0.068-1.562c-0.303,0.426-0.668,0.889-1.094,1.391
		c-0.205,0.251-0.361,0.376-0.467,0.376c-0.092,0-0.248-0.133-0.468-0.399C75.755,12.062,75.352,11.696,74.896,11.4z M79.171,20.701
		h2.587c0.106-0.668,0.24-1.676,0.399-3.021H79.66C79.517,18.661,79.354,19.668,79.171,20.701z M80.197,12.779
		c-0.069,0.92-0.164,1.869-0.285,2.85h2.45c0.061-0.623,0.126-1.573,0.194-2.85H80.197z M87.081,17.681h-2.735
		c-0.152,1.345-0.277,2.353-0.377,3.021h2.85C86.902,20.025,86.99,19.019,87.081,17.681z M87.332,12.779h-2.588l-0.205,2.85h2.679
		C87.279,14.322,87.316,13.372,87.332,12.779z"/>
	<path d="M97.693,23.938l-2.941,0.046c-0.121,0-0.193-0.016-0.217-0.046c-0.022-0.03-0.033-0.099-0.033-0.205v-1.961
		c0-0.129,0.015-0.205,0.045-0.228c0.03-0.023,0.099-0.034,0.205-0.034l2.941,0.045h5.631V9.474h-4.104L96.063,9.52
		c-0.121,0-0.193-0.015-0.217-0.046c-0.021-0.03-0.033-0.099-0.033-0.205V7.297c0-0.121,0.015-0.193,0.045-0.217
		c0.031-0.022,0.1-0.034,0.205-0.034l3.158,0.046h11.193l3.134-0.046c0.122,0,0.194,0.016,0.217,0.046s0.034,0.099,0.034,0.205
		v1.972c0,0.122-0.016,0.194-0.045,0.217c-0.031,0.022-0.1,0.034-0.206,0.034l-3.134-0.046h-4.457v12.082h5.949l2.941-0.045
		c0.121,0,0.197,0.015,0.229,0.045c0.021,0.031,0.033,0.103,0.033,0.217v1.961c0,0.113-0.014,0.185-0.039,0.211
		c-0.027,0.026-0.102,0.04-0.223,0.04l-2.941-0.046H97.693z"/>
	<path d="M122.427,20.348l-2.952,0.046c-0.13,0-0.21-0.015-0.24-0.046c-0.022-0.03-0.034-0.099-0.034-0.205v-1.391
		c0-0.129,0.016-0.209,0.046-0.239c0.03-0.022,0.106-0.034,0.229-0.034l2.952,0.046h5.756v-1.254h-3.283l-3.226,0.046
		c-0.121,0-0.189-0.016-0.205-0.046c-0.016-0.022-0.022-0.095-0.022-0.217v-1.333c0-0.137,0.011-0.217,0.034-0.24
		c0.022-0.022,0.087-0.034,0.193-0.034l3.226,0.046h3.283v-1.23h-4.389l-3.123,0.045c-0.137,0-0.217-0.015-0.239-0.045
		c-0.03-0.023-0.046-0.084-0.046-0.183V12.7c0-0.13,0.02-0.206,0.058-0.229c0.03-0.022,0.106-0.034,0.228-0.034l3.123,0.046h1.425
		c-0.258-0.578-0.505-1.067-0.74-1.471c-0.054-0.099-0.08-0.171-0.08-0.217c0-0.068,0.08-0.129,0.239-0.182l1.516-0.422h-3.727
		l-2.952,0.045c-0.13,0-0.21-0.015-0.24-0.045c-0.022-0.03-0.034-0.099-0.034-0.205V8.539c0-0.137,0.016-0.22,0.046-0.251
		c0.03-0.022,0.106-0.034,0.229-0.034l2.952,0.046h0.159c-0.297-0.593-0.741-1.261-1.334-2.006c-0.053-0.061-0.079-0.114-0.079-0.16
		c0-0.068,0.091-0.147,0.273-0.239l1.345-0.627c0.099-0.045,0.171-0.068,0.217-0.068c0.068,0,0.145,0.054,0.228,0.16
		c0.685,0.82,1.208,1.576,1.573,2.268c0.046,0.084,0.068,0.142,0.068,0.172c0,0.053-0.088,0.129-0.262,0.228L124.057,8.3h2.165
		V6.761c0-0.919-0.045-1.596-0.137-2.028c0.942,0.03,1.694,0.076,2.257,0.137c0.19,0.022,0.285,0.091,0.285,0.205
		c0,0.076-0.03,0.209-0.091,0.398c-0.092,0.221-0.137,0.65-0.137,1.288V8.3h1.892V6.784c0-0.935-0.049-1.619-0.147-2.052
		c0.987,0.03,1.735,0.083,2.245,0.159c0.205,0.023,0.308,0.096,0.308,0.217c0,0.084-0.03,0.205-0.091,0.364
		c-0.1,0.221-0.148,0.65-0.148,1.288V8.3h1.447c0.403-0.623,0.76-1.261,1.071-1.915c0.198-0.41,0.331-0.828,0.399-1.254
		c0.737,0.145,1.489,0.346,2.257,0.604c0.205,0.068,0.308,0.167,0.308,0.296c0,0.137-0.076,0.271-0.229,0.399
		c-0.137,0.114-0.27,0.262-0.398,0.444c-0.197,0.312-0.517,0.786-0.957,1.425h0.33l2.94-0.046c0.122,0,0.194,0.02,0.217,0.058
		c0.022,0.03,0.034,0.106,0.034,0.228v1.448c0,0.121-0.016,0.193-0.046,0.216c-0.03,0.023-0.099,0.034-0.205,0.034l-2.94-0.045
		h-4.092c0.646,0.121,1.262,0.262,1.847,0.422c0.205,0.053,0.308,0.147,0.308,0.284c0,0.145-0.088,0.259-0.262,0.342
		c-0.046,0.031-0.152,0.194-0.319,0.49l-0.422,0.753h1.516l3.123-0.046c0.129,0,0.205,0.016,0.229,0.046
		c0.022,0.03,0.034,0.103,0.034,0.217v1.379c0,0.152-0.088,0.228-0.263,0.228l-3.123-0.045h-4.719v1.23h3.716l3.214-0.046
		c0.13,0,0.205,0.02,0.229,0.058c0.022,0.03,0.034,0.103,0.034,0.217v1.333c0,0.122-0.014,0.196-0.04,0.223s-0.101,0.04-0.223,0.04
		l-3.214-0.046h-3.716v1.254h6.144l2.94-0.046c0.122,0,0.194,0.02,0.217,0.058c0.022,0.03,0.034,0.103,0.034,0.216v1.391
		c0,0.114-0.014,0.185-0.04,0.211c-0.026,0.027-0.097,0.04-0.211,0.04l-2.94-0.046h-4.16c1.816,1.276,4.407,2.287,7.773,3.032
		c-0.364,0.448-0.669,0.95-0.912,1.505c-0.167,0.402-0.338,0.604-0.513,0.604c-0.068,0-0.247-0.038-0.536-0.113
		c-3.146-0.912-5.76-2.307-7.842-4.184l0.114,4.616c0,0.121-0.016,0.197-0.046,0.229c-0.03,0.022-0.099,0.034-0.205,0.034h-1.983
		c-0.159,0-0.239-0.088-0.239-0.263c0-0.076,0.008-0.319,0.023-0.729c0.037-1.254,0.061-2.519,0.068-3.796
		c-1.854,1.771-4.351,3.165-7.489,4.184c-0.259,0.091-0.437,0.137-0.535,0.137c-0.152,0-0.323-0.201-0.514-0.604
		c-0.312-0.631-0.623-1.098-0.935-1.401c3.191-0.798,5.673-1.881,7.443-3.249H122.427z M132.058,11.127
		c0.076-0.167,0.164-0.479,0.263-0.935h-5.95c0.038,0.015,0.099,0.076,0.183,0.182c0.418,0.707,0.768,1.41,1.049,2.109h3.829
		C131.637,12.088,131.845,11.636,132.058,11.127z"/>
	<path d="M151.229,12.369c0.927-1.467,1.58-3.142,1.961-5.026c0.113-0.517,0.171-0.999,0.171-1.448
		c0.691,0.1,1.36,0.239,2.006,0.422c0.251,0.084,0.376,0.187,0.376,0.308c0,0.1-0.064,0.247-0.193,0.445
		c-0.076,0.106-0.168,0.395-0.273,0.866c-0.031,0.137-0.118,0.471-0.263,1.003h1.688V8.186c0-1.405-0.058-2.534-0.171-3.385
		c0.843,0.022,1.633,0.076,2.37,0.159c0.267,0.03,0.399,0.11,0.399,0.239c0,0.122-0.05,0.293-0.148,0.514
		c-0.114,0.22-0.171,1.029-0.171,2.428v0.798h1.71l2.826-0.046c0.122,0,0.194,0.016,0.217,0.046c0.023,0.03,0.034,0.106,0.034,0.228
		v1.664c0,0.122-0.015,0.194-0.045,0.217c-0.031,0.022-0.1,0.034-0.206,0.034l-2.826-0.046h-1.71v3.055h2.405l3.135-0.045
		c0.151,0,0.228,0.076,0.228,0.228v1.688c0,0.121-0.012,0.197-0.034,0.228s-0.088,0.046-0.193,0.046l-3.135-0.046h-1.653
		c1.292,2.166,3.143,4.096,5.552,5.79c-0.381,0.464-0.707,1.019-0.98,1.664c-0.13,0.313-0.251,0.468-0.365,0.468
		c-0.106,0-0.27-0.103-0.49-0.308c-1.982-1.794-3.495-3.708-4.536-5.745c0.015,1.551,0.046,3.332,0.091,5.346
		c0.03,1.573,0.046,2.367,0.046,2.383c0,0.159-0.084,0.239-0.251,0.239h-1.915c-0.175,0-0.262-0.08-0.262-0.239
		c0-0.062,0.022-1.019,0.068-2.873c0.03-1.777,0.057-3.331,0.08-4.661c-1.117,2.09-2.729,3.978-4.833,5.665
		c-0.267,0.22-0.445,0.33-0.536,0.33c-0.106,0-0.239-0.171-0.398-0.513c-0.244-0.502-0.578-0.954-1.004-1.356
		c2.478-1.596,4.438-3.659,5.882-6.189h-0.774l-3.146,0.046c-0.145,0-0.225-0.023-0.239-0.068c-0.312,0.593-0.513,1.007-0.604,1.242
		c-0.121,0.251-0.216,0.376-0.284,0.376c-0.062,0-0.16-0.141-0.297-0.422c-0.502-0.927-0.938-1.941-1.311-3.043
		c0.007,2.652,0.041,5.422,0.103,8.31c0.007,0.623,0.022,1.436,0.046,2.438c0.007,0.448,0.011,0.703,0.011,0.764
		c0,0.122-0.016,0.198-0.046,0.229c-0.03,0.022-0.099,0.034-0.205,0.034h-1.892c-0.137,0-0.217-0.02-0.239-0.057
		c-0.03-0.023-0.046-0.092-0.046-0.206c0-0.068,0.012-0.638,0.034-1.709c0.068-3.291,0.114-6.262,0.137-8.914
		c-0.555,1.961-1.349,3.773-2.382,5.438c-0.152,0.25-0.271,0.376-0.354,0.376c-0.092,0-0.183-0.133-0.273-0.399
		c-0.229-0.69-0.494-1.272-0.798-1.743c1.572-2.082,2.754-4.578,3.545-7.489h-0.514l-2.188,0.046c-0.121,0-0.197-0.016-0.228-0.046
		c-0.022-0.03-0.034-0.103-0.034-0.217V9.52c0-0.121,0.015-0.197,0.046-0.228c0.03-0.023,0.103-0.034,0.216-0.034l2.188,0.045h0.707
		V7.912c0-1.375-0.064-2.436-0.193-3.18c0.919,0.022,1.698,0.076,2.336,0.159c0.267,0.03,0.399,0.11,0.399,0.239
		c0,0.106-0.05,0.271-0.148,0.49c-0.106,0.221-0.159,0.973-0.159,2.257v1.425l1.915-0.045c0.121,0,0.197,0.015,0.228,0.045
		c0.022,0.03,0.034,0.103,0.034,0.217v1.652c0,0.13-0.016,0.206-0.046,0.229s-0.103,0.034-0.216,0.034l-0.524-0.012
		c-0.365-0.015-0.779-0.026-1.242-0.034c0.569,1.338,1.321,2.618,2.257,3.842v-0.958c0-0.151,0.087-0.228,0.262-0.228l3.146,0.045
		h1.596v-3.055h-2.405c-0.175,0.486-0.448,1.103-0.821,1.847c-0.159,0.312-0.284,0.468-0.376,0.468c-0.091,0-0.27-0.103-0.535-0.308
		C152.151,12.745,151.707,12.521,151.229,12.369z"/>
	<path d="M171.323,11.457l-2.998,0.046c-0.106,0-0.171-0.014-0.193-0.04c-0.023-0.026-0.034-0.108-0.034-0.245V9.383
		c0-0.145,0.011-0.228,0.034-0.251c0.022-0.022,0.087-0.034,0.193-0.034l2.998,0.046h8.378l-0.022-0.958
		c0-1.254-0.065-2.366-0.194-3.34c1.186,0.031,2.033,0.076,2.542,0.138c0.251,0.03,0.376,0.125,0.376,0.284
		c0,0.038-0.046,0.202-0.137,0.49c-0.084,0.236-0.125,0.723-0.125,1.459c0,0.19,0.004,0.49,0.011,0.9v1.026h2.873l2.986-0.046
		c0.121,0,0.193,0.02,0.217,0.058c0.022,0.03,0.034,0.106,0.034,0.228v1.835c0,0.137-0.016,0.221-0.046,0.251
		c-0.022,0.022-0.091,0.034-0.205,0.034l-2.986-0.046h-2.781c0.175,3.253,0.619,5.916,1.333,7.99
		c0.745,2.303,1.444,3.454,2.098,3.454c0.555,0,0.904-1.14,1.049-3.42c0.326,0.335,0.832,0.688,1.516,1.061
		c0.281,0.151,0.452,0.262,0.513,0.33c0.076,0.076,0.114,0.183,0.114,0.319c0,0.068-0.015,0.217-0.046,0.444
		c-0.44,2.842-1.379,4.252-2.814,4.229c-1.908-0.022-3.436-1.736-4.583-5.141c-0.813-2.34-1.349-5.429-1.606-9.267H171.323z
		 M176.008,16.632h-0.912v4.582c1.771-0.433,3.287-0.869,4.549-1.311c-0.046,0.426-0.069,0.916-0.069,1.471
		c0,0.402-0.034,0.646-0.103,0.729c-0.061,0.068-0.258,0.151-0.592,0.25c-2.759,0.912-5.544,1.669-8.355,2.269
		c-0.479,0.114-0.806,0.231-0.98,0.354c-0.197,0.106-0.338,0.159-0.422,0.159c-0.151,0-0.262-0.103-0.33-0.308
		c-0.145-0.433-0.346-1.22-0.604-2.359c0.631-0.015,1.375-0.106,2.234-0.273l2.245-0.422v-5.141h-0.798l-2.77,0.058
		c-0.175,0-0.263-0.08-0.263-0.239v-1.744c0-0.137,0.016-0.221,0.046-0.251c0.03-0.022,0.103-0.034,0.217-0.034l2.77,0.046h4.138
		l2.759-0.046c0.129,0,0.209,0.019,0.239,0.057c0.022,0.031,0.034,0.106,0.034,0.229v1.744c0,0.113-0.016,0.182-0.046,0.205
		c-0.038,0.022-0.113,0.034-0.228,0.034L176.008,16.632z M185.024,5.245c0.76,0.615,1.429,1.33,2.006,2.143
		c0.053,0.076,0.08,0.141,0.08,0.194c0,0.076-0.08,0.167-0.239,0.273l-1.106,0.752c-0.137,0.092-0.235,0.137-0.296,0.137
		c-0.068,0-0.141-0.061-0.217-0.182c-0.471-0.791-1.079-1.531-1.823-2.223c-0.076-0.076-0.114-0.138-0.114-0.183
		c0-0.061,0.072-0.141,0.217-0.239l0.979-0.673c0.138-0.091,0.229-0.137,0.274-0.137C184.854,5.108,184.933,5.154,185.024,5.245z"/>
	<path d="M213.041,12.483c-0.396,0.501-0.729,1.083-1.003,1.744c-0.152,0.387-0.285,0.581-0.399,0.581
		c-0.084,0-0.262-0.061-0.536-0.183c-1.694-0.752-3.18-1.576-4.456-2.474v1.732c0,0.122-0.016,0.194-0.046,0.217
		c-0.03,0.023-0.099,0.034-0.205,0.034l-2.645-0.046h-3.591l-2.645,0.046c-0.121,0-0.193-0.015-0.216-0.046
		c-0.023-0.03-0.034-0.099-0.034-0.205v-1.777c-1.277,0.935-2.687,1.774-4.229,2.519c-0.281,0.145-0.467,0.217-0.559,0.217
		c-0.106,0-0.247-0.194-0.421-0.581c-0.297-0.631-0.646-1.147-1.049-1.551c3.929-1.55,6.915-3.811,8.959-6.782
		c0.357-0.517,0.631-1.021,0.82-1.516c0.95,0.122,1.79,0.285,2.52,0.49c0.281,0.068,0.422,0.175,0.422,0.319
		c0,0.175-0.076,0.3-0.229,0.376c-0.099,0.046-0.209,0.114-0.33,0.205C205.64,8.82,208.93,11.047,213.041,12.483z M195.772,18.434
		l-3.09,0.045c-0.129,0-0.209-0.015-0.239-0.045c-0.022-0.03-0.034-0.1-0.034-0.206v-1.755c0-0.121,0.016-0.193,0.046-0.217
		c0.03-0.022,0.106-0.034,0.228-0.034l3.09,0.046h12.436l3.089-0.046c0.129,0,0.209,0.016,0.239,0.046
		c0.022,0.03,0.034,0.099,0.034,0.205v1.755c0,0.114-0.014,0.185-0.04,0.211c-0.026,0.027-0.104,0.04-0.233,0.04l-3.089-0.045
		h-7.204c-0.577,1.421-1.272,2.883-2.086,4.388c2.432-0.137,4.829-0.33,7.192-0.581c-0.714-0.874-1.28-1.535-1.698-1.983
		c-0.068-0.076-0.103-0.141-0.103-0.193c0-0.076,0.08-0.152,0.239-0.229l1.493-0.775c0.106-0.061,0.189-0.091,0.251-0.091
		c0.068,0,0.148,0.046,0.239,0.137c1.474,1.543,2.922,3.351,4.343,5.426c0.053,0.075,0.08,0.141,0.08,0.193
		c0,0.076-0.064,0.156-0.194,0.239l-1.618,1.061c-0.137,0.091-0.229,0.137-0.273,0.137c-0.062,0-0.126-0.054-0.194-0.16
		c-0.312-0.523-0.699-1.132-1.162-1.823c-3.017,0.38-7.22,0.775-12.606,1.186c-0.357,0.022-0.639,0.095-0.844,0.217
		c-0.114,0.091-0.247,0.137-0.399,0.137c-0.167,0-0.273-0.11-0.319-0.331c-0.144-0.509-0.308-1.311-0.489-2.405
		c0.356,0.031,0.732,0.046,1.128,0.046c0.38,0,0.851-0.015,1.413-0.046l0.753-0.022c0.828-1.573,1.512-3.081,2.052-4.524H195.772z
		 M197.596,11.879c0.273,0.03,1.129,0.046,2.564,0.046h3.591c1.337,0,2.177-0.016,2.52-0.046c-1.68-1.216-3.15-2.641-4.412-4.274
		C200.628,9.238,199.207,10.663,197.596,11.879z"/>
	<path d="M214.738,17.566c1.451-0.911,2.731-2.024,3.841-3.339c0.958-1.133,1.71-2.322,2.258-3.568h-2.645l-2.474,0.046
		c-0.122,0-0.198-0.016-0.229-0.046c-0.022-0.03-0.034-0.099-0.034-0.205V8.722c0-0.121,0.02-0.197,0.058-0.228
		c0.022-0.023,0.091-0.034,0.205-0.034l2.474,0.057h0.444V7.559c0-1.246-0.062-2.195-0.183-2.85c0.836,0.023,1.646,0.076,2.428,0.16
		c0.251,0.022,0.376,0.103,0.376,0.239c0,0.106-0.045,0.27-0.137,0.49c-0.099,0.183-0.147,0.802-0.147,1.857v1.061h0.979
		c0.19,0,0.339-0.034,0.445-0.103c0.121-0.061,0.209-0.092,0.262-0.092c0.152,0,0.44,0.202,0.866,0.604
		c0.418,0.418,0.627,0.699,0.627,0.844c0,0.129-0.076,0.255-0.228,0.376c-0.259,0.251-0.441,0.475-0.548,0.673
		c-0.539,1.147-1.2,2.283-1.983,3.408c0.836,0.965,1.979,1.877,3.432,2.735c-0.335,0.357-0.646,0.862-0.935,1.516
		c-0.16,0.342-0.309,0.513-0.445,0.513c-0.099,0-0.254-0.095-0.467-0.284c-0.707-0.639-1.376-1.36-2.006-2.166v6.565l0.045,2.747
		c0,0.121-0.015,0.197-0.045,0.228c-0.038,0.023-0.118,0.034-0.24,0.034h-1.869c-0.129,0-0.209-0.015-0.239-0.045
		c-0.022-0.031-0.034-0.104-0.034-0.217l0.046-2.747v-5.585c-0.821,0.798-1.562,1.443-2.223,1.938
		c-0.251,0.205-0.414,0.308-0.49,0.308c-0.099,0-0.221-0.179-0.365-0.535C215.293,18.494,215.02,17.939,214.738,17.566z
		 M226.433,25.227l-3.134,0.045c-0.122,0-0.194-0.015-0.217-0.045s-0.034-0.099-0.034-0.205v-1.847c0-0.122,0.013-0.195,0.04-0.223
		c0.026-0.026,0.097-0.04,0.211-0.04l3.134,0.046h1.961v-8.72h-1.049l-2.94,0.023c-0.114,0-0.183-0.012-0.205-0.034
		c-0.023-0.023-0.034-0.092-0.034-0.206v-1.846c0-0.114,0.015-0.183,0.045-0.206c0.023-0.015,0.088-0.022,0.194-0.022l2.94,0.022
		h1.049V8.254c0-1.527-0.061-2.701-0.183-3.521c1.003,0.03,1.866,0.083,2.588,0.159c0.251,0.03,0.376,0.11,0.376,0.239
		c0,0.168-0.038,0.331-0.114,0.49c-0.129,0.251-0.193,1.105-0.193,2.564v3.784h1.471l2.94-0.022c0.129,0,0.205,0.012,0.228,0.034
		c0.023,0.023,0.034,0.088,0.034,0.194v1.846c0,0.122-0.019,0.194-0.057,0.217c-0.022,0.016-0.091,0.023-0.205,0.023l-2.94-0.023
		h-1.471v8.72h2.12l3.111-0.046c0.13,0,0.209,0.016,0.239,0.046c0.023,0.03,0.034,0.103,0.034,0.217v1.847
		c0,0.121-0.015,0.193-0.045,0.216c-0.03,0.023-0.106,0.034-0.229,0.034l-3.111-0.045H226.433z"/>
</g>
<g>
	<polygon fill="#E60012" points="0,15.287 6.525,15.287 22.121,0 15.596,0 	"/>
	<polygon points="0,15.287 6.525,15.287 22.121,30.574 15.596,30.574 	"/>
	<polygon points="12.608,15.287 19.135,15.287 34.729,0 28.203,0 	"/>
	<polygon fill="#E60012" points="12.608,15.287 19.135,15.287 34.729,30.574 28.203,30.574 	"/>
</g>
</svg>
